<?xml version="1.0" standalone="no"?>
<!DOCTYPE svg PUBLIC "-//W3C//DTD SVG 20010904//EN"
 "http://www.w3.org/TR/2001/REC-SVG-20010904/DTD/svg10.dtd">
<svg version="1.0" xmlns="http://www.w3.org/2000/svg"
 width="700.000000pt" height="700.000000pt" viewBox="0 0 700.000000 700.000000"
 preserveAspectRatio="xMidYMid meet">
<metadata>
Created by potrace 1.14, written by Peter Selinger 2001-2017
</metadata>
<g transform="translate(0.000000,700.000000) scale(0.100000,-0.100000)"
fill="#000000" stroke="none">
<path d="M3318 6475 c-2 -2 -39 -6 -83 -9 -80 -6 -91 -7 -220 -27 -183 -29
-461 -106 -615 -171 -14 -6 -38 -16 -55 -23 -256 -106 -570 -300 -792 -490
-158 -135 -360 -358 -485 -535 -280 -396 -472 -895 -523 -1356 -3 -27 -9 -83
-14 -124 -5 -41 -7 -169 -5 -285 3 -197 5 -237 18 -325 3 -19 8 -55 11 -80 9
-66 34 -189 46 -231 14 -45 11 -50 -72 -136 -36 -37 -97 -105 -135 -149 -181
-214 -275 -359 -346 -538 -20 -52 -22 -58 -38 -136 -11 -58 -5 -207 10 -245
77 -187 181 -276 386 -329 146 -37 401 -38 609 -2 30 6 149 28 160 30 6 2 37
8 70 15 33 7 84 19 114 27 61 15 53 19 149 -70 218 -204 538 -404 862 -541
146 -62 432 -147 570 -170 19 -3 42 -8 50 -10 8 -2 40 -7 70 -10 30 -3 62 -8
70 -10 71 -19 483 -26 640 -12 98 9 111 11 205 27 39 7 82 14 97 16 55 7 236
56 358 96 1010 331 1772 1183 1986 2223 2 11 6 31 9 45 11 50 14 73 21 129 3
31 8 58 9 61 9 15 19 218 19 380 0 180 -5 261 -25 405 -15 105 -18 122 -40
223 l-21 93 70 72 c197 202 361 421 449 600 218 441 30 789 -449 834 -159 15
-316 5 -538 -33 -68 -12 -231 -48 -278 -61 -60 -17 -45 -24 -152 74 -86 80
-367 293 -385 293 -2 0 -30 16 -62 37 -308 197 -798 367 -1173 408 -36 4 -78
9 -95 12 -35 5 -452 13 -457 8z m3151 -1170 c18 -3 49 -13 67 -21 42 -20 44
-47 10 -137 -42 -112 -178 -312 -302 -444 -9 -9 -25 16 -66 101 -31 62 -81
154 -112 206 -31 51 -56 96 -56 100 0 4 -9 15 -20 25 -11 10 -20 24 -20 31 0
7 -4 14 -8 16 -11 4 -52 64 -52 76 0 5 17 12 38 15 20 4 53 9 72 12 79 13 98
15 165 21 39 3 71 7 73 8 4 4 173 -3 211 -9z m-5647 -3107 c58 -120 150 -279
230 -393 l48 -70 -37 -7 c-21 -3 -60 -10 -88 -13 -27 -4 -52 -8 -55 -10 -13
-8 -173 -18 -271 -17 -131 1 -212 24 -217 61 -11 79 85 258 238 446 79 96 94
114 97 115 0 0 26 -51 55 -112z"/>
</g>
</svg>
